<svg xmlns="http://www.w3.org/2000/svg" viewBox="0 0 640 60" role="img" aria-label="Houston skyline">
  <defs>
    <linearGradient id="houston-sky" x1="0" y1="0" x2="1" y2="0.15">
      <stop offset="0%" stop-color="#c9d5e0"/>
      <stop offset="55%" stop-color="#d7dde6"/>
      <stop offset="100%" stop-color="#e8c9a8"/>
    </linearGradient>
  </defs>

  <!-- Full-bleed sky; buildings scaled 50% (uniform) and centered — no crop -->
  <rect width="640" height="60" fill="url(#houston-sky)"/>

  <g fill="#002d62" transform="translate(160 0) scale(0.5)">
    <!-- Ground / foreground band -->
    <rect x="0" y="98" width="640" height="22"/>

    <!-- Far-left low cluster -->
    <rect x="8" y="86" width="22" height="14"/>
    <rect x="28" y="80" width="16" height="20"/>
    <rect x="46" y="84" width="18" height="16"/>
    <!-- Small domed roof -->
    <rect x="66" y="78" width="20" height="22"/>
    <ellipse cx="76" cy="78" rx="7" ry="5"/>

    <!-- Left mid-rises -->
    <rect x="92" y="70" width="14" height="30"/>
    <rect x="108" y="64" width="18" height="36"/>
    <rect x="128" y="72" width="12" height="28"/>

    <!-- Bright mid block (foreground white building) -->
    <rect x="148" y="58" width="28" height="42"/>

    <!-- Slender tower left of Chase -->
    <rect x="180" y="36" width="16" height="64"/>

    <!-- Building with rounded / curved crown (left of Chase) -->
    <rect x="200" y="42" width="22" height="58"/>
    <path d="M200 42 Q211 28 222 42 Z"/>

    <!-- JPMorgan Chase Tower — tallest flat monolith -->
    <rect x="228" y="10" width="20" height="90"/>

    <!-- Low connector / mid block beside Chase -->
    <rect x="250" y="62" width="18" height="38"/>
    <rect x="270" y="48" width="14" height="52"/>

    <!-- TC Energy Center / Bank of America — triple stepped gables -->
    <rect x="290" y="38" width="36" height="62"/>
    <polygon points="290,38 296,24 302,38"/>
    <polygon points="302,34 308,18 314,34"/>
    <polygon points="314,38 320,26 326,38"/>
    <!-- Inner gable steps -->
    <polygon points="296,38 302,30 308,38"/>
    <polygon points="308,34 314,24 320,34"/>

    <!-- Mid block between gables and Wells Fargo -->
    <rect x="330" y="52" width="16" height="48"/>

    <!-- Wells Fargo Plaza — tall mass with slightly rounded shoulders -->
    <rect x="350" y="22" width="28" height="78" rx="3"/>
    <rect x="356" y="18" width="16" height="8"/>

    <!-- Stepped-crown tower (right of Wells Fargo) -->
    <rect x="384" y="40" width="18" height="60"/>
    <rect x="387" y="34" width="12" height="8"/>
    <rect x="389" y="30" width="8" height="6"/>

    <!-- Rectangular cluster -->
    <rect x="408" y="48" width="14" height="52"/>
    <rect x="424" y="44" width="16" height="56"/>

    <!-- CenterPoint-style pitched / notched crown — kept below Texas stamp -->
    <rect x="446" y="52" width="20" height="48"/>
    <polygon points="446,52 456,40 466,52"/>
    <polygon points="452,52 456,46 460,52" fill="#d1dce5"/>

    <!-- Right dense blocks -->
    <rect x="472" y="56" width="18" height="44"/>
    <rect x="492" y="50" width="14" height="50"/>
    <rect x="508" y="60" width="20" height="40"/>
    <rect x="530" y="68" width="16" height="32"/>
    <rect x="548" y="74" width="22" height="26"/>

    <!-- Far-right low buildings tapering off -->
    <rect x="574" y="78" width="18" height="22"/>
    <rect x="594" y="84" width="14" height="16"/>
    <rect x="610" y="88" width="20" height="12"/>
  </g>
</svg>
